<svg width="23" height="23" viewBox="0 0 23 23" fill="none" xmlns="http://www.w3.org/2000/svg">
<path fill-rule="evenodd" clip-rule="evenodd" d="M10.4925 20.2327C10.9192 20.298 11.3563 20.3319 11.8013 20.3319C16.5397 20.3319 20.3809 16.4907 20.3809 11.7523C20.3809 7.01384 16.5397 3.17262 11.8013 3.17262C11.4834 3.17262 11.1695 3.18991 10.8606 3.22361C13.2111 5.00437 14.7652 8.08913 14.7652 11.5963C14.7652 15.2834 13.0475 18.5036 10.4925 20.2327ZM11.6453 22.8278C17.8483 22.8278 22.8768 17.7993 22.8768 11.5963C22.8768 5.39326 17.8483 0.364746 11.6453 0.364746C5.44232 0.364746 0.413818 5.39326 0.413818 11.5963C0.413818 17.7993 5.44232 22.8278 11.6453 22.8278Z" fill="white"/>
</svg>
