<svg width="21" height="23" viewBox="0 0 21 23" fill="none" xmlns="http://www.w3.org/2000/svg">
<path fill-rule="evenodd" clip-rule="evenodd" d="M11.8088 11.6707C11.961 11.5779 12.0902 11.3833 12.1943 11.1671C13.5652 11.7274 14.5285 13.0513 14.5285 14.5952C14.5285 16.6463 12.8284 18.309 10.7313 18.309C9.87039 18.309 9.07642 18.0288 8.43951 17.5566C8.23059 17.4577 8.05869 17.3627 7.91803 17.2849C7.69985 17.1643 7.55678 17.0852 7.46719 17.0975C7.20532 17.1336 7.28135 17.3746 7.35045 17.5935C7.39735 17.7422 7.44109 17.8807 7.37339 17.9378C7.30258 17.9976 7.07321 17.7789 6.80519 17.5234C6.44034 17.1755 6.00389 16.7594 5.79809 16.8844C5.63536 16.9832 5.79335 17.2514 5.98674 17.5795L6.00109 17.6039C6.08278 17.7426 6.17746 17.8839 6.26384 18.0128C6.43947 18.2747 6.58091 18.4859 6.51015 18.5216C6.42459 18.5647 5.82853 18.1624 5.32623 17.6039C5.13236 17.3883 4.94458 17.1547 4.77005 16.9375V16.9375C4.38805 16.4622 4.06979 16.0662 3.89114 16.1131C3.67623 16.1695 3.83881 16.6128 4.07769 17.0394C4.18939 17.2389 4.32079 17.442 4.43455 17.6179V17.618C4.61149 17.8915 4.74579 18.099 4.69709 18.1246C4.63137 18.1589 4.05308 17.595 3.6603 16.8844C3.427 16.4623 3.23111 15.9958 3.07252 15.6182C2.90053 15.2087 2.77242 14.9036 2.68806 14.8729C2.39496 14.7663 2.39496 15.3638 2.51251 16.2263C2.52785 16.3389 2.55068 16.4569 2.5788 16.5771C3.71881 20.2656 7.2208 22.9513 11.3641 22.9513C16.4322 22.9513 20.5407 18.9331 20.5407 13.9763C20.5407 9.25851 16.819 5.39097 12.0904 5.02888C12.0963 4.80664 12.2123 4.36592 12.2123 4.36592C12.2123 4.36592 13.0471 2.34618 13.0912 1.91459C13.0941 1.88595 13.0976 1.85482 13.1013 1.82167C13.1533 1.35534 13.2501 0.488281 12.5041 0.488281C12.1058 0.488281 11.9205 0.784628 11.7087 1.12356V1.12356C11.6273 1.25368 11.542 1.39007 11.4393 1.51838C10.6992 2.44255 9.45482 3.59664 8.74921 4.21149C7.25779 5.51105 5.79453 6.5791 4.94111 7.20201L4.94107 7.20205C4.55292 7.48534 4.29096 7.67658 4.20988 7.7556C3.5989 8.35122 1.40822 12.3027 1.40822 12.3027C1.40822 12.3027 0.699782 13.5704 0.951592 13.8276C1.2034 14.0847 1.81064 14.0258 1.81064 14.0258C1.81064 14.0258 9.96844 12.1543 10.6988 12.0067C10.8954 11.9669 11.0343 11.944 11.1408 11.9264C11.4302 11.8786 11.4821 11.87 11.8088 11.6707ZM6.04092 9.26571C5.60303 9.68193 4.87679 10.6754 4.87679 10.6754C4.87679 10.6754 6.22651 10.7586 6.96985 10.052C7.71323 9.34538 7.54292 8.1412 7.54292 8.1412C7.54292 8.1412 6.47878 8.84948 6.04092 9.26571Z" fill="white"/>
</svg>
