<svg width="22" height="23" viewBox="0 0 22 23" fill="none" xmlns="http://www.w3.org/2000/svg">
<path fill-rule="evenodd" clip-rule="evenodd" d="M3.36181 2.35552C3.63366 1.2822 4.60603 0.488037 5.76384 0.488037C6.6323 0.488037 7.39644 0.934871 7.83886 1.61119H8.56333C9.01343 1.14927 9.64226 0.862421 10.3381 0.862421C11.3584 0.862421 12.2346 1.47905 12.6144 2.35996H13.221C13.6011 2.12268 14.0501 1.98557 14.5312 1.98557C15.5515 1.98557 16.4277 2.6022 16.8075 3.48311H18.4569C18.471 3.48311 18.4842 3.4869 18.4956 3.49352C18.5709 3.48663 18.6472 3.48311 18.7243 3.48311C20.0927 3.48311 21.202 4.59243 21.202 5.96085V13.3905L21.2021 13.4043L21.202 13.4181V13.5251C21.202 13.5704 21.2008 13.6155 21.1983 13.6605C21.0493 18.8146 16.4147 22.9511 10.7193 22.9511C4.92985 22.9511 0.236572 18.6768 0.236572 13.4043C0.236572 10.8592 1.3301 8.54678 3.11261 6.83538C3.10816 9.31653 3.15007 11.8816 3.34326 11.8376C3.86054 11.7197 3.45638 4.03472 3.36181 2.35552Z" fill="white"/>
</svg>
