<svg width="400" height="401" viewBox="0 0 400 401" fill="none" xmlns="http://www.w3.org/2000/svg">
<path d="M200 0.683594C302.923 0.683594 387.822 77.2755 400 176.167H302.386C291.272 130.273 249.649 96.1675 200 96.1675C150.351 96.1675 108.728 130.273 97.6136 176.167H0C12.1777 77.2755 97.0774 0.683594 200 0.683594Z" fill="url(#paint0_linear_2047_1618)"/>
<path d="M302.386 225.2H400C387.822 324.092 302.923 400.684 200 400.684C97.0774 400.684 12.1777 324.092 0 225.2H97.6136C108.728 271.094 150.351 305.2 200 305.2C249.649 305.2 291.272 271.094 302.386 225.2Z" fill="url(#paint1_linear_2047_1618)"/>
<path d="M200 266.49C236.616 266.49 266.3 237.027 266.3 200.684C266.3 164.34 236.616 134.877 200 134.877C163.384 134.877 133.7 164.34 133.7 200.684C133.7 237.027 163.384 266.49 200 266.49Z" fill="url(#paint2_linear_2047_1618)"/>
<defs>
<linearGradient id="paint0_linear_2047_1618" x1="200" y1="-151.697" x2="202.644" y2="304.24" gradientUnits="userSpaceOnUse">
<stop offset="0.285271" stop-color="white" stop-opacity="0.5"/>
<stop offset="1" stop-color="white" stop-opacity="0"/>
</linearGradient>
<linearGradient id="paint1_linear_2047_1618" x1="200" y1="-151.697" x2="202.644" y2="304.24" gradientUnits="userSpaceOnUse">
<stop offset="0.285271" stop-color="white" stop-opacity="0.5"/>
<stop offset="1" stop-color="white" stop-opacity="0"/>
</linearGradient>
<linearGradient id="paint2_linear_2047_1618" x1="200" y1="-151.697" x2="202.644" y2="304.24" gradientUnits="userSpaceOnUse">
<stop offset="0.285271" stop-color="white" stop-opacity="0.5"/>
<stop offset="1" stop-color="white" stop-opacity="0"/>
</linearGradient>
</defs>
</svg>
