<svg width="23" height="23" viewBox="0 0 23 23" fill="none" xmlns="http://www.w3.org/2000/svg">
<path fill-rule="evenodd" clip-rule="evenodd" d="M16.6749 22.5923C14.6487 22.696 12.329 22.696 11.5407 22.5923C5.39149 21.7833 0.487793 17.2874 0.487793 11.2104C0.487793 5.13341 5.51631 0.207031 11.7193 0.207031C17.9223 0.207031 22.9508 5.13341 22.9508 11.2104C22.9508 14.0368 21.8631 16.6142 20.0754 18.563C19.5899 19.0921 20.256 19.4633 20.9327 19.8404C21.5965 20.2103 22.2704 20.5859 21.8787 21.1219C21.4471 21.7124 19.1072 22.4678 16.6749 22.5923ZM10.1399 9.83498C10.1399 10.7845 9.35415 11.5542 8.38495 11.5542C7.41575 11.5542 6.63003 10.7845 6.63003 9.83498C6.63003 9.19816 6.98342 8.64225 7.50854 8.3451C7.53877 9.17302 8.2195 9.83494 9.05485 9.83494H10.1399V9.83498ZM15.5791 8.3451C15.5489 9.17302 14.8681 9.83494 14.0328 9.83494H12.9478V9.83498C12.9478 10.7845 13.7335 11.5542 14.7027 11.5542C15.6719 11.5542 16.4576 10.7845 16.4576 9.83498C16.4576 9.19816 16.1042 8.64225 15.5791 8.3451Z" fill="white"/>
</svg>
