<svg width="23" height="20" viewBox="0 0 23 20" fill="none" xmlns="http://www.w3.org/2000/svg">
<path d="M11.3108 3.10512L5.73179 0.342041L5.90053 6.51761L11.1682 9.12646L11.3108 3.10512Z" fill="white"/>
<path d="M17.5046 6.59281L17.4337 0.367451L12.0078 3.32143L12.0748 9.19936L17.5046 6.59281Z" fill="white"/>
<path d="M17.5015 13.2516L22.8766 10.1771L17.4987 7.34857L12.1232 10.1722L17.5015 13.2516Z" fill="white"/>
<path d="M11.1673 10.1771L5.79216 13.2516L0.413818 10.1722L5.78937 7.34857L11.1673 10.1771Z" fill="white"/>
<path d="M17.5856 19.918L12.0066 17.1549L12.1492 11.1335L17.4168 13.7424L17.5856 19.918Z" fill="white"/>
<path d="M5.85353 13.7489L5.92445 19.9742L11.3503 17.0202L11.2834 11.1423L5.85353 13.7489Z" fill="white"/>
</svg>
