<svg width="50" height="50" viewBox="0 0 50 50" fill="none" xmlns="http://www.w3.org/2000/svg">
<path d="M24.9999 8.33301C33.4999 8.33301 40.5208 14.6872 41.5416 22.9163H33.0833C32.1458 19.3122 28.8749 16.6663 24.9999 16.6663C21.1249 16.6663 17.8541 19.3122 16.9374 22.9163H8.45825C9.47909 14.6872 16.4999 8.33301 24.9999 8.33301Z" fill="#FF6568"/>
<path d="M25.0001 4.16699C13.5001 4.16699 4.16675 13.5003 4.16675 25.0003C4.16675 36.5003 13.5001 45.8337 25.0001 45.8337C36.5001 45.8337 45.8334 36.5003 45.8334 25.0003C45.8334 13.5003 36.5001 4.16699 25.0001 4.16699ZM25.0001 8.33366C33.5001 8.33366 40.5209 14.6878 41.5418 22.917H33.0834C32.1459 19.3128 28.8751 16.667 25.0001 16.667C21.1251 16.667 17.8542 19.3128 16.9376 22.917H8.45842C9.47925 14.6878 16.5001 8.33366 25.0001 8.33366ZM29.1667 25.0003C29.1667 27.292 27.2917 29.167 25.0001 29.167C22.7084 29.167 20.8334 27.292 20.8334 25.0003C20.8334 22.7087 22.7084 20.8337 25.0001 20.8337C27.2917 20.8337 29.1667 22.7087 29.1667 25.0003ZM25.0001 41.667C16.5001 41.667 9.47925 35.3128 8.45842 27.0837H16.9167C17.8334 30.6878 21.1042 33.3337 24.9792 33.3337C28.8542 33.3337 32.1251 30.6878 33.0417 27.0837H41.5001C40.5209 35.3128 33.5001 41.667 25.0001 41.667Z" fill="black"/>
</svg>
