<svg width="532" height="110" viewBox="0 0 532 110" fill="none" xmlns="http://www.w3.org/2000/svg">
<path d="M236.486 6.85524C236.486 10.6413 239.512 13.7105 243.243 13.7105C246.975 13.7105 250 10.6413 250 6.85524C250 3.06919 246.975 0 243.243 0C239.512 0 236.486 3.06919 236.486 6.85524Z" fill="url(#paint0_linear_2047_1613)"/>
<path d="M189.189 6.85524C189.189 10.6413 192.214 13.7105 195.946 13.7105C199.678 13.7105 202.703 10.6413 202.703 6.85524C202.703 3.06919 199.678 0 195.946 0C192.214 0 189.189 3.06919 189.189 6.85524Z" fill="url(#paint1_linear_2047_1613)"/>
<path d="M141.892 6.85524C141.892 10.6413 144.917 13.7105 148.649 13.7105C152.38 13.7105 155.405 10.6413 155.405 6.85524C155.405 3.06919 152.38 0 148.649 0C144.917 0 141.892 3.06919 141.892 6.85524Z" fill="url(#paint2_linear_2047_1613)"/>
<path d="M94.5946 6.85524C94.5946 10.6413 97.6197 13.7105 101.351 13.7105C105.083 13.7105 108.108 10.6413 108.108 6.85524C108.108 3.06919 105.083 0 101.351 0C97.6197 0 94.5946 3.06919 94.5946 6.85524Z" fill="url(#paint3_linear_2047_1613)"/>
<path d="M47.2973 6.85524C47.2973 10.6413 50.3224 13.7105 54.054 13.7105C57.7857 13.7105 60.8108 10.6413 60.8108 6.85524C60.8108 3.06919 57.7857 0 54.054 0C50.3224 0 47.2973 3.06919 47.2973 6.85524Z" fill="url(#paint4_linear_2047_1613)"/>
<path d="M0 6.85524C0 10.6413 3.0251 13.7105 6.75676 13.7105C10.4884 13.7105 13.5135 10.6413 13.5135 6.85524C13.5135 3.06919 10.4884 0 6.75676 0C3.0251 0 0 3.06919 0 6.85524Z" fill="url(#paint5_linear_2047_1613)"/>
<path d="M236.486 54.8419C236.486 58.6279 239.512 61.6971 243.243 61.6971C246.975 61.6971 250 58.6279 250 54.8419C250 51.0559 246.975 47.9867 243.243 47.9867C239.512 47.9867 236.486 51.0559 236.486 54.8419Z" fill="url(#paint6_linear_2047_1613)"/>
<path d="M189.189 54.8419C189.189 58.6279 192.214 61.6971 195.946 61.6971C199.678 61.6971 202.703 58.6279 202.703 54.8419C202.703 51.0559 199.678 47.9867 195.946 47.9867C192.214 47.9867 189.189 51.0559 189.189 54.8419Z" fill="url(#paint7_linear_2047_1613)"/>
<path d="M141.892 54.8419C141.892 58.6279 144.917 61.6971 148.649 61.6971C152.38 61.6971 155.405 58.6279 155.405 54.8419C155.405 51.0559 152.38 47.9867 148.649 47.9867C144.917 47.9867 141.892 51.0559 141.892 54.8419Z" fill="url(#paint8_linear_2047_1613)"/>
<path d="M94.5946 54.8419C94.5946 58.6279 97.6197 61.6971 101.351 61.6971C105.083 61.6971 108.108 58.6279 108.108 54.8419C108.108 51.0559 105.083 47.9867 101.351 47.9867C97.6197 47.9867 94.5946 51.0559 94.5946 54.8419Z" fill="url(#paint9_linear_2047_1613)"/>
<path d="M47.2973 54.8419C47.2973 58.6279 50.3224 61.6971 54.054 61.6971C57.7857 61.6971 60.8108 58.6279 60.8108 54.8419C60.8108 51.0559 57.7857 47.9867 54.054 47.9867C50.3224 47.9867 47.2973 51.0559 47.2973 54.8419Z" fill="url(#paint10_linear_2047_1613)"/>
<path d="M0 54.8419C0 58.6279 3.0251 61.6971 6.75676 61.6971C10.4884 61.6971 13.5135 58.6279 13.5135 54.8419C13.5135 51.0559 10.4884 47.9867 6.75676 47.9867C3.0251 47.9867 0 51.0559 0 54.8419Z" fill="url(#paint11_linear_2047_1613)"/>
<path d="M236.486 102.829C236.486 106.615 239.512 109.684 243.243 109.684C246.975 109.684 250 106.615 250 102.829C250 99.0425 246.975 95.9733 243.243 95.9733C239.512 95.9733 236.486 99.0425 236.486 102.829Z" fill="url(#paint12_linear_2047_1613)"/>
<path d="M189.189 102.829C189.189 106.615 192.214 109.684 195.946 109.684C199.678 109.684 202.703 106.615 202.703 102.829C202.703 99.0425 199.678 95.9733 195.946 95.9733C192.214 95.9733 189.189 99.0425 189.189 102.829Z" fill="url(#paint13_linear_2047_1613)"/>
<path d="M141.892 102.829C141.892 106.615 144.917 109.684 148.649 109.684C152.38 109.684 155.405 106.615 155.405 102.829C155.405 99.0425 152.38 95.9733 148.649 95.9733C144.917 95.9733 141.892 99.0425 141.892 102.829Z" fill="url(#paint14_linear_2047_1613)"/>
<path d="M94.5946 102.829C94.5946 106.615 97.6197 109.684 101.351 109.684C105.083 109.684 108.108 106.615 108.108 102.829C108.108 99.0425 105.083 95.9733 101.351 95.9733C97.6197 95.9733 94.5946 99.0425 94.5946 102.829Z" fill="url(#paint15_linear_2047_1613)"/>
<path d="M47.2973 102.829C47.2973 106.615 50.3224 109.684 54.054 109.684C57.7857 109.684 60.8108 106.615 60.8108 102.829C60.8108 99.0425 57.7857 95.9733 54.054 95.9733C50.3224 95.9733 47.2973 99.0425 47.2973 102.829Z" fill="url(#paint16_linear_2047_1613)"/>
<path d="M0 102.829C0 106.615 3.0251 109.684 6.75676 109.684C10.4884 109.684 13.5135 106.615 13.5135 102.829C13.5135 99.0425 10.4884 95.9733 6.75676 95.9733C3.0251 95.9733 0 99.0425 0 102.829Z" fill="url(#paint17_linear_2047_1613)"/>
<path d="M518.486 6.85524C518.486 10.6413 521.512 13.7105 525.243 13.7105C528.975 13.7105 532 10.6413 532 6.85524C532 3.06919 528.975 0 525.243 0C521.512 0 518.486 3.06919 518.486 6.85524Z" fill="url(#paint18_linear_2047_1613)"/>
<path d="M471.189 6.85524C471.189 10.6413 474.214 13.7105 477.946 13.7105C481.678 13.7105 484.703 10.6413 484.703 6.85524C484.703 3.06919 481.678 0 477.946 0C474.214 0 471.189 3.06919 471.189 6.85524Z" fill="url(#paint19_linear_2047_1613)"/>
<path d="M423.892 6.85524C423.892 10.6413 426.917 13.7105 430.649 13.7105C434.38 13.7105 437.405 10.6413 437.405 6.85524C437.405 3.06919 434.38 0 430.649 0C426.917 0 423.892 3.06919 423.892 6.85524Z" fill="url(#paint20_linear_2047_1613)"/>
<path d="M376.595 6.85524C376.595 10.6413 379.62 13.7105 383.351 13.7105C387.083 13.7105 390.108 10.6413 390.108 6.85524C390.108 3.06919 387.083 0 383.351 0C379.62 0 376.595 3.06919 376.595 6.85524Z" fill="url(#paint21_linear_2047_1613)"/>
<path d="M329.297 6.85524C329.297 10.6413 332.322 13.7105 336.054 13.7105C339.786 13.7105 342.811 10.6413 342.811 6.85524C342.811 3.06919 339.786 0 336.054 0C332.322 0 329.297 3.06919 329.297 6.85524Z" fill="url(#paint22_linear_2047_1613)"/>
<path d="M282 6.85524C282 10.6413 285.025 13.7105 288.757 13.7105C292.488 13.7105 295.514 10.6413 295.514 6.85524C295.514 3.06919 292.488 0 288.757 0C285.025 0 282 3.06919 282 6.85524Z" fill="url(#paint23_linear_2047_1613)"/>
<path d="M518.486 54.8419C518.486 58.6279 521.512 61.6971 525.243 61.6971C528.975 61.6971 532 58.6279 532 54.8419C532 51.0559 528.975 47.9867 525.243 47.9867C521.512 47.9867 518.486 51.0559 518.486 54.8419Z" fill="url(#paint24_linear_2047_1613)"/>
<path d="M471.189 54.8419C471.189 58.6279 474.214 61.6971 477.946 61.6971C481.678 61.6971 484.703 58.6279 484.703 54.8419C484.703 51.0559 481.678 47.9867 477.946 47.9867C474.214 47.9867 471.189 51.0559 471.189 54.8419Z" fill="url(#paint25_linear_2047_1613)"/>
<path d="M423.892 54.8419C423.892 58.6279 426.917 61.6971 430.649 61.6971C434.38 61.6971 437.405 58.6279 437.405 54.8419C437.405 51.0559 434.38 47.9867 430.649 47.9867C426.917 47.9867 423.892 51.0559 423.892 54.8419Z" fill="url(#paint26_linear_2047_1613)"/>
<path d="M376.595 54.8419C376.595 58.6279 379.62 61.6971 383.351 61.6971C387.083 61.6971 390.108 58.6279 390.108 54.8419C390.108 51.0559 387.083 47.9867 383.351 47.9867C379.62 47.9867 376.595 51.0559 376.595 54.8419Z" fill="url(#paint27_linear_2047_1613)"/>
<path d="M329.297 54.8419C329.297 58.6279 332.322 61.6971 336.054 61.6971C339.786 61.6971 342.811 58.6279 342.811 54.8419C342.811 51.0559 339.786 47.9867 336.054 47.9867C332.322 47.9867 329.297 51.0559 329.297 54.8419Z" fill="url(#paint28_linear_2047_1613)"/>
<path d="M282 54.8419C282 58.6279 285.025 61.6971 288.757 61.6971C292.488 61.6971 295.514 58.6279 295.514 54.8419C295.514 51.0559 292.488 47.9867 288.757 47.9867C285.025 47.9867 282 51.0559 282 54.8419Z" fill="url(#paint29_linear_2047_1613)"/>
<path d="M518.486 102.829C518.486 106.615 521.512 109.684 525.243 109.684C528.975 109.684 532 106.615 532 102.829C532 99.0425 528.975 95.9733 525.243 95.9733C521.512 95.9733 518.486 99.0425 518.486 102.829Z" fill="url(#paint30_linear_2047_1613)"/>
<path d="M471.189 102.829C471.189 106.615 474.214 109.684 477.946 109.684C481.678 109.684 484.703 106.615 484.703 102.829C484.703 99.0425 481.678 95.9733 477.946 95.9733C474.214 95.9733 471.189 99.0425 471.189 102.829Z" fill="url(#paint31_linear_2047_1613)"/>
<path d="M423.892 102.829C423.892 106.615 426.917 109.684 430.649 109.684C434.38 109.684 437.405 106.615 437.405 102.829C437.405 99.0425 434.38 95.9733 430.649 95.9733C426.917 95.9733 423.892 99.0425 423.892 102.829Z" fill="url(#paint32_linear_2047_1613)"/>
<path d="M376.595 102.829C376.595 106.615 379.62 109.684 383.351 109.684C387.083 109.684 390.108 106.615 390.108 102.829C390.108 99.0425 387.083 95.9733 383.351 95.9733C379.62 95.9733 376.595 99.0425 376.595 102.829Z" fill="url(#paint33_linear_2047_1613)"/>
<path d="M329.297 102.829C329.297 106.615 332.322 109.684 336.054 109.684C339.786 109.684 342.811 106.615 342.811 102.829C342.811 99.0425 339.786 95.9733 336.054 95.9733C332.322 95.9733 329.297 99.0425 329.297 102.829Z" fill="url(#paint34_linear_2047_1613)"/>
<path d="M282 102.829C282 106.615 285.025 109.684 288.757 109.684C292.488 109.684 295.514 106.615 295.514 102.829C295.514 99.0425 292.488 95.9733 288.757 95.9733C285.025 95.9733 282 99.0425 282 102.829Z" fill="url(#paint35_linear_2047_1613)"/>
<defs>
<linearGradient id="paint0_linear_2047_1613" x1="125" y1="-41.7843" x2="124.682" y2="83.2413" gradientUnits="userSpaceOnUse">
<stop offset="0.285271" stop-color="white" stop-opacity="0.5"/>
<stop offset="1" stop-color="white" stop-opacity="0"/>
</linearGradient>
<linearGradient id="paint1_linear_2047_1613" x1="125" y1="-41.7843" x2="124.682" y2="83.2413" gradientUnits="userSpaceOnUse">
<stop offset="0.285271" stop-color="white" stop-opacity="0.5"/>
<stop offset="1" stop-color="white" stop-opacity="0"/>
</linearGradient>
<linearGradient id="paint2_linear_2047_1613" x1="125" y1="-41.7843" x2="124.682" y2="83.2413" gradientUnits="userSpaceOnUse">
<stop offset="0.285271" stop-color="white" stop-opacity="0.5"/>
<stop offset="1" stop-color="white" stop-opacity="0"/>
</linearGradient>
<linearGradient id="paint3_linear_2047_1613" x1="125" y1="-41.7843" x2="124.682" y2="83.2413" gradientUnits="userSpaceOnUse">
<stop offset="0.285271" stop-color="white" stop-opacity="0.5"/>
<stop offset="1" stop-color="white" stop-opacity="0"/>
</linearGradient>
<linearGradient id="paint4_linear_2047_1613" x1="125" y1="-41.7843" x2="124.682" y2="83.2413" gradientUnits="userSpaceOnUse">
<stop offset="0.285271" stop-color="white" stop-opacity="0.5"/>
<stop offset="1" stop-color="white" stop-opacity="0"/>
</linearGradient>
<linearGradient id="paint5_linear_2047_1613" x1="125" y1="-41.7843" x2="124.682" y2="83.2413" gradientUnits="userSpaceOnUse">
<stop offset="0.285271" stop-color="white" stop-opacity="0.5"/>
<stop offset="1" stop-color="white" stop-opacity="0"/>
</linearGradient>
<linearGradient id="paint6_linear_2047_1613" x1="125" y1="-41.7843" x2="124.682" y2="83.2413" gradientUnits="userSpaceOnUse">
<stop offset="0.285271" stop-color="white" stop-opacity="0.5"/>
<stop offset="1" stop-color="white" stop-opacity="0"/>
</linearGradient>
<linearGradient id="paint7_linear_2047_1613" x1="125" y1="-41.7843" x2="124.682" y2="83.2413" gradientUnits="userSpaceOnUse">
<stop offset="0.285271" stop-color="white" stop-opacity="0.5"/>
<stop offset="1" stop-color="white" stop-opacity="0"/>
</linearGradient>
<linearGradient id="paint8_linear_2047_1613" x1="125" y1="-41.7843" x2="124.682" y2="83.2413" gradientUnits="userSpaceOnUse">
<stop offset="0.285271" stop-color="white" stop-opacity="0.5"/>
<stop offset="1" stop-color="white" stop-opacity="0"/>
</linearGradient>
<linearGradient id="paint9_linear_2047_1613" x1="125" y1="-41.7843" x2="124.682" y2="83.2413" gradientUnits="userSpaceOnUse">
<stop offset="0.285271" stop-color="white" stop-opacity="0.5"/>
<stop offset="1" stop-color="white" stop-opacity="0"/>
</linearGradient>
<linearGradient id="paint10_linear_2047_1613" x1="125" y1="-41.7843" x2="124.682" y2="83.2413" gradientUnits="userSpaceOnUse">
<stop offset="0.285271" stop-color="white" stop-opacity="0.5"/>
<stop offset="1" stop-color="white" stop-opacity="0"/>
</linearGradient>
<linearGradient id="paint11_linear_2047_1613" x1="125" y1="-41.7843" x2="124.682" y2="83.2413" gradientUnits="userSpaceOnUse">
<stop offset="0.285271" stop-color="white" stop-opacity="0.5"/>
<stop offset="1" stop-color="white" stop-opacity="0"/>
</linearGradient>
<linearGradient id="paint12_linear_2047_1613" x1="125" y1="-41.7843" x2="124.682" y2="83.2413" gradientUnits="userSpaceOnUse">
<stop offset="0.285271" stop-color="white" stop-opacity="0.5"/>
<stop offset="1" stop-color="white" stop-opacity="0"/>
</linearGradient>
<linearGradient id="paint13_linear_2047_1613" x1="125" y1="-41.7843" x2="124.682" y2="83.2413" gradientUnits="userSpaceOnUse">
<stop offset="0.285271" stop-color="white" stop-opacity="0.5"/>
<stop offset="1" stop-color="white" stop-opacity="0"/>
</linearGradient>
<linearGradient id="paint14_linear_2047_1613" x1="125" y1="-41.7843" x2="124.682" y2="83.2413" gradientUnits="userSpaceOnUse">
<stop offset="0.285271" stop-color="white" stop-opacity="0.5"/>
<stop offset="1" stop-color="white" stop-opacity="0"/>
</linearGradient>
<linearGradient id="paint15_linear_2047_1613" x1="125" y1="-41.7843" x2="124.682" y2="83.2413" gradientUnits="userSpaceOnUse">
<stop offset="0.285271" stop-color="white" stop-opacity="0.5"/>
<stop offset="1" stop-color="white" stop-opacity="0"/>
</linearGradient>
<linearGradient id="paint16_linear_2047_1613" x1="125" y1="-41.7843" x2="124.682" y2="83.2413" gradientUnits="userSpaceOnUse">
<stop offset="0.285271" stop-color="white" stop-opacity="0.5"/>
<stop offset="1" stop-color="white" stop-opacity="0"/>
</linearGradient>
<linearGradient id="paint17_linear_2047_1613" x1="125" y1="-41.7843" x2="124.682" y2="83.2413" gradientUnits="userSpaceOnUse">
<stop offset="0.285271" stop-color="white" stop-opacity="0.5"/>
<stop offset="1" stop-color="white" stop-opacity="0"/>
</linearGradient>
<linearGradient id="paint18_linear_2047_1613" x1="407" y1="-41.7843" x2="406.682" y2="83.2413" gradientUnits="userSpaceOnUse">
<stop offset="0.285271" stop-color="white" stop-opacity="0.5"/>
<stop offset="1" stop-color="white" stop-opacity="0"/>
</linearGradient>
<linearGradient id="paint19_linear_2047_1613" x1="407" y1="-41.7843" x2="406.682" y2="83.2413" gradientUnits="userSpaceOnUse">
<stop offset="0.285271" stop-color="white" stop-opacity="0.5"/>
<stop offset="1" stop-color="white" stop-opacity="0"/>
</linearGradient>
<linearGradient id="paint20_linear_2047_1613" x1="407" y1="-41.7843" x2="406.682" y2="83.2413" gradientUnits="userSpaceOnUse">
<stop offset="0.285271" stop-color="white" stop-opacity="0.5"/>
<stop offset="1" stop-color="white" stop-opacity="0"/>
</linearGradient>
<linearGradient id="paint21_linear_2047_1613" x1="407" y1="-41.7843" x2="406.682" y2="83.2413" gradientUnits="userSpaceOnUse">
<stop offset="0.285271" stop-color="white" stop-opacity="0.5"/>
<stop offset="1" stop-color="white" stop-opacity="0"/>
</linearGradient>
<linearGradient id="paint22_linear_2047_1613" x1="407" y1="-41.7843" x2="406.682" y2="83.2413" gradientUnits="userSpaceOnUse">
<stop offset="0.285271" stop-color="white" stop-opacity="0.5"/>
<stop offset="1" stop-color="white" stop-opacity="0"/>
</linearGradient>
<linearGradient id="paint23_linear_2047_1613" x1="407" y1="-41.7843" x2="406.682" y2="83.2413" gradientUnits="userSpaceOnUse">
<stop offset="0.285271" stop-color="white" stop-opacity="0.5"/>
<stop offset="1" stop-color="white" stop-opacity="0"/>
</linearGradient>
<linearGradient id="paint24_linear_2047_1613" x1="407" y1="-41.7843" x2="406.682" y2="83.2413" gradientUnits="userSpaceOnUse">
<stop offset="0.285271" stop-color="white" stop-opacity="0.5"/>
<stop offset="1" stop-color="white" stop-opacity="0"/>
</linearGradient>
<linearGradient id="paint25_linear_2047_1613" x1="407" y1="-41.7843" x2="406.682" y2="83.2413" gradientUnits="userSpaceOnUse">
<stop offset="0.285271" stop-color="white" stop-opacity="0.5"/>
<stop offset="1" stop-color="white" stop-opacity="0"/>
</linearGradient>
<linearGradient id="paint26_linear_2047_1613" x1="407" y1="-41.7843" x2="406.682" y2="83.2413" gradientUnits="userSpaceOnUse">
<stop offset="0.285271" stop-color="white" stop-opacity="0.5"/>
<stop offset="1" stop-color="white" stop-opacity="0"/>
</linearGradient>
<linearGradient id="paint27_linear_2047_1613" x1="407" y1="-41.7843" x2="406.682" y2="83.2413" gradientUnits="userSpaceOnUse">
<stop offset="0.285271" stop-color="white" stop-opacity="0.5"/>
<stop offset="1" stop-color="white" stop-opacity="0"/>
</linearGradient>
<linearGradient id="paint28_linear_2047_1613" x1="407" y1="-41.7843" x2="406.682" y2="83.2413" gradientUnits="userSpaceOnUse">
<stop offset="0.285271" stop-color="white" stop-opacity="0.5"/>
<stop offset="1" stop-color="white" stop-opacity="0"/>
</linearGradient>
<linearGradient id="paint29_linear_2047_1613" x1="407" y1="-41.7843" x2="406.682" y2="83.2413" gradientUnits="userSpaceOnUse">
<stop offset="0.285271" stop-color="white" stop-opacity="0.5"/>
<stop offset="1" stop-color="white" stop-opacity="0"/>
</linearGradient>
<linearGradient id="paint30_linear_2047_1613" x1="407" y1="-41.7843" x2="406.682" y2="83.2413" gradientUnits="userSpaceOnUse">
<stop offset="0.285271" stop-color="white" stop-opacity="0.5"/>
<stop offset="1" stop-color="white" stop-opacity="0"/>
</linearGradient>
<linearGradient id="paint31_linear_2047_1613" x1="407" y1="-41.7843" x2="406.682" y2="83.2413" gradientUnits="userSpaceOnUse">
<stop offset="0.285271" stop-color="white" stop-opacity="0.5"/>
<stop offset="1" stop-color="white" stop-opacity="0"/>
</linearGradient>
<linearGradient id="paint32_linear_2047_1613" x1="407" y1="-41.7843" x2="406.682" y2="83.2413" gradientUnits="userSpaceOnUse">
<stop offset="0.285271" stop-color="white" stop-opacity="0.5"/>
<stop offset="1" stop-color="white" stop-opacity="0"/>
</linearGradient>
<linearGradient id="paint33_linear_2047_1613" x1="407" y1="-41.7843" x2="406.682" y2="83.2413" gradientUnits="userSpaceOnUse">
<stop offset="0.285271" stop-color="white" stop-opacity="0.5"/>
<stop offset="1" stop-color="white" stop-opacity="0"/>
</linearGradient>
<linearGradient id="paint34_linear_2047_1613" x1="407" y1="-41.7843" x2="406.682" y2="83.2413" gradientUnits="userSpaceOnUse">
<stop offset="0.285271" stop-color="white" stop-opacity="0.5"/>
<stop offset="1" stop-color="white" stop-opacity="0"/>
</linearGradient>
<linearGradient id="paint35_linear_2047_1613" x1="407" y1="-41.7843" x2="406.682" y2="83.2413" gradientUnits="userSpaceOnUse">
<stop offset="0.285271" stop-color="white" stop-opacity="0.5"/>
<stop offset="1" stop-color="white" stop-opacity="0"/>
</linearGradient>
</defs>
</svg>
