<svg width="99" height="43" viewBox="0 0 99 43" fill="none" xmlns="http://www.w3.org/2000/svg">
<path d="M5.35135 2.6875C5.35135 4.17177 4.15341 5.375 2.67568 5.375C1.19794 5.375 0 4.17177 0 2.6875C0 1.20323 1.19794 0 2.67568 0C4.15341 0 5.35135 1.20323 5.35135 2.6875Z" fill="url(#paint0_linear_1532_21)"/>
<path d="M24.0811 2.6875C24.0811 4.17177 22.8831 5.375 21.4054 5.375C19.9277 5.375 18.7297 4.17177 18.7297 2.6875C18.7297 1.20323 19.9277 0 21.4054 0C22.8831 0 24.0811 1.20323 24.0811 2.6875Z" fill="url(#paint1_linear_1532_21)"/>
<path d="M42.8108 2.6875C42.8108 4.17177 41.6129 5.375 40.1351 5.375C38.6574 5.375 37.4595 4.17177 37.4595 2.6875C37.4595 1.20323 38.6574 0 40.1351 0C41.6129 0 42.8108 1.20323 42.8108 2.6875Z" fill="url(#paint2_linear_1532_21)"/>
<path d="M61.5405 2.6875C61.5405 4.17177 60.3426 5.375 58.8649 5.375C57.3871 5.375 56.1892 4.17177 56.1892 2.6875C56.1892 1.20323 57.3871 0 58.8649 0C60.3426 0 61.5405 1.20323 61.5405 2.6875Z" fill="url(#paint3_linear_1532_21)"/>
<path d="M80.2703 2.6875C80.2703 4.17177 79.0723 5.375 77.5946 5.375C76.1169 5.375 74.9189 4.17177 74.9189 2.6875C74.9189 1.20323 76.1169 0 77.5946 0C79.0723 0 80.2703 1.20323 80.2703 2.6875Z" fill="url(#paint4_linear_1532_21)"/>
<path d="M99 2.6875C99 4.17177 97.8021 5.375 96.3243 5.375C94.8466 5.375 93.6486 4.17177 93.6486 2.6875C93.6486 1.20323 94.8466 0 96.3243 0C97.8021 0 99 1.20323 99 2.6875Z" fill="url(#paint5_linear_1532_21)"/>
<path d="M5.35135 21.5C5.35135 22.9843 4.15341 24.1875 2.67568 24.1875C1.19794 24.1875 0 22.9843 0 21.5C0 20.0157 1.19794 18.8125 2.67568 18.8125C4.15341 18.8125 5.35135 20.0157 5.35135 21.5Z" fill="url(#paint6_linear_1532_21)"/>
<path d="M24.0811 21.5C24.0811 22.9843 22.8831 24.1875 21.4054 24.1875C19.9277 24.1875 18.7297 22.9843 18.7297 21.5C18.7297 20.0157 19.9277 18.8125 21.4054 18.8125C22.8831 18.8125 24.0811 20.0157 24.0811 21.5Z" fill="url(#paint7_linear_1532_21)"/>
<path d="M42.8108 21.5C42.8108 22.9843 41.6129 24.1875 40.1351 24.1875C38.6574 24.1875 37.4595 22.9843 37.4595 21.5C37.4595 20.0157 38.6574 18.8125 40.1351 18.8125C41.6129 18.8125 42.8108 20.0157 42.8108 21.5Z" fill="url(#paint8_linear_1532_21)"/>
<path d="M61.5405 21.5C61.5405 22.9843 60.3426 24.1875 58.8649 24.1875C57.3871 24.1875 56.1892 22.9843 56.1892 21.5C56.1892 20.0157 57.3871 18.8125 58.8649 18.8125C60.3426 18.8125 61.5405 20.0157 61.5405 21.5Z" fill="url(#paint9_linear_1532_21)"/>
<path d="M80.2703 21.5C80.2703 22.9843 79.0723 24.1875 77.5946 24.1875C76.1169 24.1875 74.9189 22.9843 74.9189 21.5C74.9189 20.0157 76.1169 18.8125 77.5946 18.8125C79.0723 18.8125 80.2703 20.0157 80.2703 21.5Z" fill="url(#paint10_linear_1532_21)"/>
<path d="M99 21.5C99 22.9843 97.8021 24.1875 96.3243 24.1875C94.8466 24.1875 93.6486 22.9843 93.6486 21.5C93.6486 20.0157 94.8466 18.8125 96.3243 18.8125C97.8021 18.8125 99 20.0157 99 21.5Z" fill="url(#paint11_linear_1532_21)"/>
<path d="M5.35135 40.3125C5.35135 41.7968 4.15341 43 2.67568 43C1.19794 43 0 41.7968 0 40.3125C0 38.8282 1.19794 37.625 2.67568 37.625C4.15341 37.625 5.35135 38.8282 5.35135 40.3125Z" fill="url(#paint12_linear_1532_21)"/>
<path d="M24.0811 40.3125C24.0811 41.7968 22.8831 43 21.4054 43C19.9277 43 18.7297 41.7968 18.7297 40.3125C18.7297 38.8282 19.9277 37.625 21.4054 37.625C22.8831 37.625 24.0811 38.8282 24.0811 40.3125Z" fill="url(#paint13_linear_1532_21)"/>
<path d="M42.8108 40.3125C42.8108 41.7968 41.6129 43 40.1351 43C38.6574 43 37.4595 41.7968 37.4595 40.3125C37.4595 38.8282 38.6574 37.625 40.1351 37.625C41.6129 37.625 42.8108 38.8282 42.8108 40.3125Z" fill="url(#paint14_linear_1532_21)"/>
<path d="M61.5405 40.3125C61.5405 41.7968 60.3426 43 58.8649 43C57.3871 43 56.1892 41.7968 56.1892 40.3125C56.1892 38.8282 57.3871 37.625 58.8649 37.625C60.3426 37.625 61.5405 38.8282 61.5405 40.3125Z" fill="url(#paint15_linear_1532_21)"/>
<path d="M80.2703 40.3125C80.2703 41.7968 79.0723 43 77.5946 43C76.1169 43 74.9189 41.7968 74.9189 40.3125C74.9189 38.8282 76.1169 37.625 77.5946 37.625C79.0723 37.625 80.2703 38.8282 80.2703 40.3125Z" fill="url(#paint16_linear_1532_21)"/>
<path d="M99 40.3125C99 41.7968 97.8021 43 96.3243 43C94.8466 43 93.6486 41.7968 93.6486 40.3125C93.6486 38.8282 94.8466 37.625 96.3243 37.625C97.8021 37.625 99 38.8282 99 40.3125Z" fill="url(#paint17_linear_1532_21)"/>
<defs>
<linearGradient id="paint0_linear_1532_21" x1="49.5" y1="0" x2="49.5" y2="43" gradientUnits="userSpaceOnUse">
<stop stop-color="white" stop-opacity="0.3"/>
<stop offset="1" stop-color="white" stop-opacity="0"/>
</linearGradient>
<linearGradient id="paint1_linear_1532_21" x1="49.5" y1="0" x2="49.5" y2="43" gradientUnits="userSpaceOnUse">
<stop stop-color="white" stop-opacity="0.3"/>
<stop offset="1" stop-color="white" stop-opacity="0"/>
</linearGradient>
<linearGradient id="paint2_linear_1532_21" x1="49.5" y1="0" x2="49.5" y2="43" gradientUnits="userSpaceOnUse">
<stop stop-color="white" stop-opacity="0.3"/>
<stop offset="1" stop-color="white" stop-opacity="0"/>
</linearGradient>
<linearGradient id="paint3_linear_1532_21" x1="49.5" y1="0" x2="49.5" y2="43" gradientUnits="userSpaceOnUse">
<stop stop-color="white" stop-opacity="0.3"/>
<stop offset="1" stop-color="white" stop-opacity="0"/>
</linearGradient>
<linearGradient id="paint4_linear_1532_21" x1="49.5" y1="0" x2="49.5" y2="43" gradientUnits="userSpaceOnUse">
<stop stop-color="white" stop-opacity="0.3"/>
<stop offset="1" stop-color="white" stop-opacity="0"/>
</linearGradient>
<linearGradient id="paint5_linear_1532_21" x1="49.5" y1="0" x2="49.5" y2="43" gradientUnits="userSpaceOnUse">
<stop stop-color="white" stop-opacity="0.3"/>
<stop offset="1" stop-color="white" stop-opacity="0"/>
</linearGradient>
<linearGradient id="paint6_linear_1532_21" x1="49.5" y1="0" x2="49.5" y2="43" gradientUnits="userSpaceOnUse">
<stop stop-color="white" stop-opacity="0.3"/>
<stop offset="1" stop-color="white" stop-opacity="0"/>
</linearGradient>
<linearGradient id="paint7_linear_1532_21" x1="49.5" y1="0" x2="49.5" y2="43" gradientUnits="userSpaceOnUse">
<stop stop-color="white" stop-opacity="0.3"/>
<stop offset="1" stop-color="white" stop-opacity="0"/>
</linearGradient>
<linearGradient id="paint8_linear_1532_21" x1="49.5" y1="0" x2="49.5" y2="43" gradientUnits="userSpaceOnUse">
<stop stop-color="white" stop-opacity="0.3"/>
<stop offset="1" stop-color="white" stop-opacity="0"/>
</linearGradient>
<linearGradient id="paint9_linear_1532_21" x1="49.5" y1="0" x2="49.5" y2="43" gradientUnits="userSpaceOnUse">
<stop stop-color="white" stop-opacity="0.3"/>
<stop offset="1" stop-color="white" stop-opacity="0"/>
</linearGradient>
<linearGradient id="paint10_linear_1532_21" x1="49.5" y1="0" x2="49.5" y2="43" gradientUnits="userSpaceOnUse">
<stop stop-color="white" stop-opacity="0.3"/>
<stop offset="1" stop-color="white" stop-opacity="0"/>
</linearGradient>
<linearGradient id="paint11_linear_1532_21" x1="49.5" y1="0" x2="49.5" y2="43" gradientUnits="userSpaceOnUse">
<stop stop-color="white" stop-opacity="0.3"/>
<stop offset="1" stop-color="white" stop-opacity="0"/>
</linearGradient>
<linearGradient id="paint12_linear_1532_21" x1="49.5" y1="0" x2="49.5" y2="43" gradientUnits="userSpaceOnUse">
<stop stop-color="white" stop-opacity="0.3"/>
<stop offset="1" stop-color="white" stop-opacity="0"/>
</linearGradient>
<linearGradient id="paint13_linear_1532_21" x1="49.5" y1="0" x2="49.5" y2="43" gradientUnits="userSpaceOnUse">
<stop stop-color="white" stop-opacity="0.3"/>
<stop offset="1" stop-color="white" stop-opacity="0"/>
</linearGradient>
<linearGradient id="paint14_linear_1532_21" x1="49.5" y1="0" x2="49.5" y2="43" gradientUnits="userSpaceOnUse">
<stop stop-color="white" stop-opacity="0.3"/>
<stop offset="1" stop-color="white" stop-opacity="0"/>
</linearGradient>
<linearGradient id="paint15_linear_1532_21" x1="49.5" y1="0" x2="49.5" y2="43" gradientUnits="userSpaceOnUse">
<stop stop-color="white" stop-opacity="0.3"/>
<stop offset="1" stop-color="white" stop-opacity="0"/>
</linearGradient>
<linearGradient id="paint16_linear_1532_21" x1="49.5" y1="0" x2="49.5" y2="43" gradientUnits="userSpaceOnUse">
<stop stop-color="white" stop-opacity="0.3"/>
<stop offset="1" stop-color="white" stop-opacity="0"/>
</linearGradient>
<linearGradient id="paint17_linear_1532_21" x1="49.5" y1="0" x2="49.5" y2="43" gradientUnits="userSpaceOnUse">
<stop stop-color="white" stop-opacity="0.3"/>
<stop offset="1" stop-color="white" stop-opacity="0"/>
</linearGradient>
</defs>
</svg>
