<svg width="251" height="110" viewBox="0 0 251 110" fill="none" xmlns="http://www.w3.org/2000/svg">
<path d="M13.5525 6.875C13.5525 10.672 10.5186 13.75 6.77624 13.75C3.03382 13.75 0 10.672 0 6.875C0 3.07804 3.03382 0 6.77624 0C10.5186 0 13.5525 3.07804 13.5525 6.875Z" fill="url(#paint0_linear_1532_1499)"/>
<path d="M60.9861 6.875C60.9861 10.672 57.9523 13.75 54.2099 13.75C50.4675 13.75 47.4337 10.672 47.4337 6.875C47.4337 3.07804 50.4675 0 54.2099 0C57.9523 0 60.9861 3.07804 60.9861 6.875Z" fill="url(#paint1_linear_1532_1499)"/>
<path d="M108.42 6.875C108.42 10.672 105.386 13.75 101.644 13.75C97.9011 13.75 94.8673 10.672 94.8673 6.875C94.8673 3.07804 97.9011 0 101.644 0C105.386 0 108.42 3.07804 108.42 6.875Z" fill="url(#paint2_linear_1532_1499)"/>
<path d="M155.853 6.875C155.853 10.672 152.82 13.75 149.077 13.75C145.335 13.75 142.301 10.672 142.301 6.875C142.301 3.07804 145.335 0 149.077 0C152.82 0 155.853 3.07804 155.853 6.875Z" fill="url(#paint3_linear_1532_1499)"/>
<path d="M203.287 6.875C203.287 10.672 200.253 13.75 196.511 13.75C192.768 13.75 189.735 10.672 189.735 6.875C189.735 3.07804 192.768 0 196.511 0C200.253 0 203.287 3.07804 203.287 6.875Z" fill="url(#paint4_linear_1532_1499)"/>
<path d="M250.721 6.875C250.721 10.672 247.687 13.75 243.945 13.75C240.202 13.75 237.168 10.672 237.168 6.875C237.168 3.07804 240.202 0 243.945 0C247.687 0 250.721 3.07804 250.721 6.875Z" fill="url(#paint5_linear_1532_1499)"/>
<path d="M13.5525 55C13.5525 58.797 10.5186 61.875 6.77624 61.875C3.03382 61.875 0 58.797 0 55C0 51.203 3.03382 48.125 6.77624 48.125C10.5186 48.125 13.5525 51.203 13.5525 55Z" fill="url(#paint6_linear_1532_1499)"/>
<path d="M60.9861 55C60.9861 58.797 57.9523 61.875 54.2099 61.875C50.4675 61.875 47.4337 58.797 47.4337 55C47.4337 51.203 50.4675 48.125 54.2099 48.125C57.9523 48.125 60.9861 51.203 60.9861 55Z" fill="url(#paint7_linear_1532_1499)"/>
<path d="M108.42 55C108.42 58.797 105.386 61.875 101.644 61.875C97.9011 61.875 94.8673 58.797 94.8673 55C94.8673 51.203 97.9011 48.125 101.644 48.125C105.386 48.125 108.42 51.203 108.42 55Z" fill="url(#paint8_linear_1532_1499)"/>
<path d="M155.853 55C155.853 58.797 152.82 61.875 149.077 61.875C145.335 61.875 142.301 58.797 142.301 55C142.301 51.203 145.335 48.125 149.077 48.125C152.82 48.125 155.853 51.203 155.853 55Z" fill="url(#paint9_linear_1532_1499)"/>
<path d="M203.287 55C203.287 58.797 200.253 61.875 196.511 61.875C192.768 61.875 189.735 58.797 189.735 55C189.735 51.203 192.768 48.125 196.511 48.125C200.253 48.125 203.287 51.203 203.287 55Z" fill="url(#paint10_linear_1532_1499)"/>
<path d="M250.721 55C250.721 58.797 247.687 61.875 243.945 61.875C240.202 61.875 237.168 58.797 237.168 55C237.168 51.203 240.202 48.125 243.945 48.125C247.687 48.125 250.721 51.203 250.721 55Z" fill="url(#paint11_linear_1532_1499)"/>
<path d="M13.5525 103.125C13.5525 106.922 10.5186 110 6.77624 110C3.03382 110 0 106.922 0 103.125C0 99.328 3.03382 96.25 6.77624 96.25C10.5186 96.25 13.5525 99.328 13.5525 103.125Z" fill="url(#paint12_linear_1532_1499)"/>
<path d="M60.9861 103.125C60.9861 106.922 57.9523 110 54.2099 110C50.4675 110 47.4337 106.922 47.4337 103.125C47.4337 99.328 50.4675 96.25 54.2099 96.25C57.9523 96.25 60.9861 99.328 60.9861 103.125Z" fill="url(#paint13_linear_1532_1499)"/>
<path d="M108.42 103.125C108.42 106.922 105.386 110 101.644 110C97.9011 110 94.8673 106.922 94.8673 103.125C94.8673 99.328 97.9011 96.25 101.644 96.25C105.386 96.25 108.42 99.328 108.42 103.125Z" fill="url(#paint14_linear_1532_1499)"/>
<path d="M155.853 103.125C155.853 106.922 152.82 110 149.077 110C145.335 110 142.301 106.922 142.301 103.125C142.301 99.328 145.335 96.25 149.077 96.25C152.82 96.25 155.853 99.328 155.853 103.125Z" fill="url(#paint15_linear_1532_1499)"/>
<path d="M203.287 103.125C203.287 106.922 200.253 110 196.511 110C192.768 110 189.735 106.922 189.735 103.125C189.735 99.328 192.768 96.25 196.511 96.25C200.253 96.25 203.287 99.328 203.287 103.125Z" fill="url(#paint16_linear_1532_1499)"/>
<path d="M250.721 103.125C250.721 106.922 247.687 110 243.945 110C240.202 110 237.168 106.922 237.168 103.125C237.168 99.328 240.202 96.25 243.945 96.25C247.687 96.25 250.721 99.328 250.721 103.125Z" fill="url(#paint17_linear_1532_1499)"/>
<defs>
<linearGradient id="paint0_linear_1532_1499" x1="-15.2879" y1="55" x2="301.169" y2="54.1911" gradientUnits="userSpaceOnUse">
<stop offset="0.285271" stop-color="white" stop-opacity="0.25"/>
<stop offset="1" stop-color="white" stop-opacity="0"/>
</linearGradient>
<linearGradient id="paint1_linear_1532_1499" x1="-15.2879" y1="55" x2="301.169" y2="54.1911" gradientUnits="userSpaceOnUse">
<stop offset="0.285271" stop-color="white" stop-opacity="0.25"/>
<stop offset="1" stop-color="white" stop-opacity="0"/>
</linearGradient>
<linearGradient id="paint2_linear_1532_1499" x1="-15.2879" y1="55" x2="301.169" y2="54.1911" gradientUnits="userSpaceOnUse">
<stop offset="0.285271" stop-color="white" stop-opacity="0.25"/>
<stop offset="1" stop-color="white" stop-opacity="0"/>
</linearGradient>
<linearGradient id="paint3_linear_1532_1499" x1="-15.2879" y1="55" x2="301.169" y2="54.1911" gradientUnits="userSpaceOnUse">
<stop offset="0.285271" stop-color="white" stop-opacity="0.25"/>
<stop offset="1" stop-color="white" stop-opacity="0"/>
</linearGradient>
<linearGradient id="paint4_linear_1532_1499" x1="-15.2879" y1="55" x2="301.169" y2="54.1911" gradientUnits="userSpaceOnUse">
<stop offset="0.285271" stop-color="white" stop-opacity="0.25"/>
<stop offset="1" stop-color="white" stop-opacity="0"/>
</linearGradient>
<linearGradient id="paint5_linear_1532_1499" x1="-15.2879" y1="55" x2="301.169" y2="54.1911" gradientUnits="userSpaceOnUse">
<stop offset="0.285271" stop-color="white" stop-opacity="0.25"/>
<stop offset="1" stop-color="white" stop-opacity="0"/>
</linearGradient>
<linearGradient id="paint6_linear_1532_1499" x1="-15.2879" y1="55" x2="301.169" y2="54.1911" gradientUnits="userSpaceOnUse">
<stop offset="0.285271" stop-color="white" stop-opacity="0.25"/>
<stop offset="1" stop-color="white" stop-opacity="0"/>
</linearGradient>
<linearGradient id="paint7_linear_1532_1499" x1="-15.2879" y1="55" x2="301.169" y2="54.1911" gradientUnits="userSpaceOnUse">
<stop offset="0.285271" stop-color="white" stop-opacity="0.25"/>
<stop offset="1" stop-color="white" stop-opacity="0"/>
</linearGradient>
<linearGradient id="paint8_linear_1532_1499" x1="-15.2879" y1="55" x2="301.169" y2="54.1911" gradientUnits="userSpaceOnUse">
<stop offset="0.285271" stop-color="white" stop-opacity="0.25"/>
<stop offset="1" stop-color="white" stop-opacity="0"/>
</linearGradient>
<linearGradient id="paint9_linear_1532_1499" x1="-15.2879" y1="55" x2="301.169" y2="54.1911" gradientUnits="userSpaceOnUse">
<stop offset="0.285271" stop-color="white" stop-opacity="0.25"/>
<stop offset="1" stop-color="white" stop-opacity="0"/>
</linearGradient>
<linearGradient id="paint10_linear_1532_1499" x1="-15.2879" y1="55" x2="301.169" y2="54.1911" gradientUnits="userSpaceOnUse">
<stop offset="0.285271" stop-color="white" stop-opacity="0.25"/>
<stop offset="1" stop-color="white" stop-opacity="0"/>
</linearGradient>
<linearGradient id="paint11_linear_1532_1499" x1="-15.2879" y1="55" x2="301.169" y2="54.1911" gradientUnits="userSpaceOnUse">
<stop offset="0.285271" stop-color="white" stop-opacity="0.25"/>
<stop offset="1" stop-color="white" stop-opacity="0"/>
</linearGradient>
<linearGradient id="paint12_linear_1532_1499" x1="-15.2879" y1="55" x2="301.169" y2="54.1911" gradientUnits="userSpaceOnUse">
<stop offset="0.285271" stop-color="white" stop-opacity="0.25"/>
<stop offset="1" stop-color="white" stop-opacity="0"/>
</linearGradient>
<linearGradient id="paint13_linear_1532_1499" x1="-15.2879" y1="55" x2="301.169" y2="54.1911" gradientUnits="userSpaceOnUse">
<stop offset="0.285271" stop-color="white" stop-opacity="0.25"/>
<stop offset="1" stop-color="white" stop-opacity="0"/>
</linearGradient>
<linearGradient id="paint14_linear_1532_1499" x1="-15.2879" y1="55" x2="301.169" y2="54.1911" gradientUnits="userSpaceOnUse">
<stop offset="0.285271" stop-color="white" stop-opacity="0.25"/>
<stop offset="1" stop-color="white" stop-opacity="0"/>
</linearGradient>
<linearGradient id="paint15_linear_1532_1499" x1="-15.2879" y1="55" x2="301.169" y2="54.1911" gradientUnits="userSpaceOnUse">
<stop offset="0.285271" stop-color="white" stop-opacity="0.25"/>
<stop offset="1" stop-color="white" stop-opacity="0"/>
</linearGradient>
<linearGradient id="paint16_linear_1532_1499" x1="-15.2879" y1="55" x2="301.169" y2="54.1911" gradientUnits="userSpaceOnUse">
<stop offset="0.285271" stop-color="white" stop-opacity="0.25"/>
<stop offset="1" stop-color="white" stop-opacity="0"/>
</linearGradient>
<linearGradient id="paint17_linear_1532_1499" x1="-15.2879" y1="55" x2="301.169" y2="54.1911" gradientUnits="userSpaceOnUse">
<stop offset="0.285271" stop-color="white" stop-opacity="0.25"/>
<stop offset="1" stop-color="white" stop-opacity="0"/>
</linearGradient>
</defs>
</svg>
