<svg width="22" height="24" viewBox="0 0 22 24" fill="none" xmlns="http://www.w3.org/2000/svg">
<path fill-rule="evenodd" clip-rule="evenodd" d="M19.43 19.4594C19.43 19.4594 16.5973 21.7313 10.9602 20.7912C6.68345 20.0778 4.40241 15.3633 4.40241 12.8292C4.40241 6.82103 8.84926 5.45375 11.8556 5.45375C14.862 5.45375 16.8232 8.38479 16.8232 10.6542C16.8232 12.9235 15.2181 14.9085 12.7203 14.9085C10.2225 14.9085 9.48272 13.1549 9.48272 11.5427C9.48272 9.93052 10.7871 9.36252 11.9767 9.36252C13.1662 9.36252 13.5735 10.3781 13.5735 11.251C13.5735 12.1239 12.8963 12.4365 12.3314 12.4365C11.7665 12.4365 11.7107 12.1515 11.4945 11.852C11.2782 11.5525 11.7702 10.4189 10.9602 10.4189C10.1502 10.4189 9.99925 11.7221 9.99925 11.7221C9.99925 11.7221 10.2945 14.2377 12.7203 14.1943C15.1461 14.1509 16.2969 12.2756 15.9624 10.4189C15.628 8.56214 13.8261 6.58918 10.6636 6.98785C7.50115 7.38652 6.20996 10.5819 6.7791 13.9966C7.34824 17.4114 11.4391 19.39 14.6556 18.6781C17.8721 17.9663 21.0756 15.6377 21.0756 9.73381C21.0756 3.82987 15.9624 0.281068 9.86538 0.86593C3.76833 1.45079 -0.0164371 6.78123 0.225821 13.1859C0.46808 19.5905 6.54532 23.0786 11.6842 23.2584C16.8232 23.4382 19.9736 20.4634 19.9736 20.4634C19.9736 20.4634 20.6821 19.8316 20.4043 19.3383C20.1265 18.8449 19.43 19.4594 19.43 19.4594Z" fill="white"/>
</svg>
