<svg width="15" height="13" viewBox="0 0 15 13" fill="none" xmlns="http://www.w3.org/2000/svg">
<path fill-rule="evenodd" clip-rule="evenodd" d="M11.5816 6.18398C11.5808 6.18281 11.5804 6.18135 11.5807 6.17991L12.5357 0.611372C12.5361 0.608808 12.5383 0.606934 12.5409 0.606934H12.8432C12.8455 0.606934 12.8475 0.608445 12.8482 0.610667L14.9998 7.42284C15.0004 7.42494 14.9997 7.42728 14.9979 7.42866L13.4116 8.6672C13.4092 8.66904 13.4058 8.66857 13.404 8.66615L11.5816 6.18398ZM0 9.87551C0 9.87782 0.00148509 9.87986 0.0036806 9.8806L3.27374 10.9498C3.27532 10.9503 3.27708 10.9501 3.27845 10.9491L10.5878 5.90293C10.589 5.90208 10.5899 5.90076 10.5901 5.8993L11.3739 0.639924C11.3744 0.636696 11.3719 0.633796 11.3686 0.633796H4.89435C4.89274 0.633796 4.89125 0.634504 4.89022 0.635729L0.00122869 6.53356C0.000434452 6.53452 0 6.53572 0 6.53698V9.87551ZM4.63639 11.2222L8.20887 12.3925C8.21048 12.393 8.21227 12.3927 8.21364 12.3917L12.4669 9.34083C12.4693 9.33917 12.4699 9.33592 12.4683 9.33352L10.8738 6.96085C10.8722 6.95836 10.8688 6.95772 10.8664 6.95941L4.63639 11.2222Z" fill="white"/>
</svg>
