<svg width="17" height="16" viewBox="0 0 17 16" fill="none" xmlns="http://www.w3.org/2000/svg">
<path fill-rule="evenodd" clip-rule="evenodd" d="M10.9085 11.623C9.8505 12.3905 8.54926 12.843 7.14221 12.843C3.5957 12.843 0.720703 9.96802 0.720703 6.4215C0.720703 2.87499 3.5957 0 7.14221 0C10.6887 0 13.5637 2.87499 13.5637 6.4215C13.5637 7.8283 13.1114 9.12953 12.344 10.1875C12.4449 10.2377 12.5392 10.3048 12.6233 10.389L16.4073 14.173C16.8252 14.5908 16.8252 15.2686 16.4073 15.6864C15.9893 16.1045 15.3118 16.1045 14.8937 15.6864L11.1099 11.9026C11.0258 11.8185 10.9586 11.7239 10.9085 11.623ZM11.4232 6.4215C11.4232 8.78593 9.50664 10.7025 7.14221 10.7025C4.77778 10.7025 2.8612 8.78593 2.8612 6.4215C2.8612 4.05708 4.77778 2.1405 7.14221 2.1405C9.50664 2.1405 11.4232 4.05708 11.4232 6.4215Z" fill="#747476"/>
</svg>
