<svg width="23" height="20" viewBox="0 0 23 20" fill="none" xmlns="http://www.w3.org/2000/svg">
<path fill-rule="evenodd" clip-rule="evenodd" d="M0.490035 10.1723C0.487047 10.1672 0.487045 10.1609 0.490031 10.1557L6.13844 0.505156C6.14138 0.50015 6.14677 0.49707 6.15256 0.49707H17.348C17.3538 0.49707 17.3592 0.500177 17.3622 0.505226L22.9486 10.1558C22.9516 10.1609 22.9516 10.1672 22.9486 10.1722L17.3622 19.812C17.3592 19.817 17.3538 19.8201 17.348 19.8201H6.15256C6.14677 19.8201 6.14138 19.8171 6.13844 19.812L0.490035 10.1723ZM16.9234 10.1586C16.9234 13.0318 14.5942 15.3609 11.7211 15.3609C8.84791 15.3609 6.51873 13.0318 6.51873 10.1586C6.51873 7.28539 8.84791 4.95625 11.7211 4.95625C14.5942 4.95625 16.9234 7.28539 16.9234 10.1586Z" fill="white"/>
</svg>
